<svg xmlns="http://www.w3.org/2000/svg" xmlns:xlink="http://www.w3.org/1999/xlink" viewBox="0 0 735.61 832.82"><defs><style>.cls-1{fill:#becfe4;}.cls-2{fill:#bddae6;}.cls-3{fill:#d3c7d8;}.cls-4{fill:#f9f5f2;}.cls-5{fill:#f2b175;}.cls-6{fill:#eaac77;}.cls-7{fill:#edccb3;}.cls-8{fill:#90b6e1;}.cls-9{fill:#d3e4f4;}.cls-10{fill:#aec2d5;}.cls-11{fill:#7a96cd;}.cls-12{fill:#b3cacf;}.cls-13{font-size:58px;fill:#8aa8ad;letter-spacing:0.03em;}.cls-13,.cls-16{font-family:PaindeMie-Regular, Pain de Mie;}.cls-14{letter-spacing:0.02em;}.cls-15{letter-spacing:0.02em;}.cls-16{font-size:78px;fill:#fff;letter-spacing:0.05em;}.cls-17{letter-spacing:0.03em;}.cls-18{letter-spacing:0.05em;}.cls-19{letter-spacing:0.04em;}.cls-20{fill:#d0dff4;}.cls-21{fill:#dcf0f7;}.cls-22{fill:#f8f7f7;}.cls-23{fill:#f6f7f7;}</style></defs><g id="Ebene_2" data-name="Ebene 2"><rect class="cls-1" y="244.32" width="735.61" height="588.49" rx="129.25"/><path class="cls-1" d="M233.51,446.33c-8.66-6.33-68.95-34.75,12-66.24a6.37,6.37,0,0,0,4-4.87c3-18.13,11.5-103.11,78.49-44.27,18.43,16.19,37.79,3.75,35.78-.65-18.79-41.2-.65-50.17,42.29-60.58,2.12-.51,45-6.92,46.05-8.82,12.25-21.58,55.08-142.34,123,1.42a6.35,6.35,0,0,0,5.74,3.63c18.75,0,89.47,3.19,80.71,57.41-.91,5.67,9.76,11.31,14.32,7.81,25.55-19.62,74.68-45,81.08,36.15a6.07,6.07,0,0,0,4.63,5.66c36.74,6.77,102.75,29.85,1.61,75.08-64.47,28.83-513.28,13.18-540.56,9C221.68,456.93,234.33,446.92,233.51,446.33Z" transform="translate(-137.14 -192.94)"/><rect class="cls-2" x="29.01" y="271.26" width="677.59" height="538.76" rx="129.25"/><rect class="cls-3" x="89.4" y="675.41" width="124.92" height="96.29" rx="32.53"/><rect class="cls-3" x="545.42" y="672.81" width="124.92" height="96.29" rx="32.53"/><rect class="cls-4" x="232.2" y="661.75" width="292.69" height="122.31" rx="42.11"/><rect class="cls-5" x="245.33" y="675.41" width="271.95" height="96.29" rx="35.78"/><path class="cls-6" d="M404.33,882.45s-9.55,38.16,39.9,38.16,90-13.88,95.77-13.88,80.33,22.13,89.87,9.76,17.35-24.5,0-40.12C629.87,876.37,395.65,866.83,404.33,882.45Z" transform="translate(-137.14 -192.94)"/><path class="cls-7" d="M396.52,905s0-20.82,17.35-20S404.33,908.47,396.52,905Z" transform="translate(-137.14 -192.94)"/><path class="cls-8" d="M742,582.87l-16.16-44.8a9.94,9.94,0,0,0-.58-1.3c-1.46-2.73-7-14.8,4.69-20.16a10,10,0,0,0,2.29-1.44L768.48,485a8,8,0,0,0,2.77-4.34c1.08-4.61,1.24-13.48-12.76-15.18-.68-.09-1.37-.19-2-.34L700,452.66c-7.25-1.61-14,1.3-15.27,6.58L659.15,565.32c-1.3,5.37,3.54,11.22,10.86,13.13l50.92,13.25a17.87,17.87,0,0,1,2.21.73c2.42,1,9.51,3.35,15.12.22A7.74,7.74,0,0,0,742,582.87Z" transform="translate(-137.14 -192.94)"/><path class="cls-8" d="M244.54,494.46l35.83,28.3a9.46,9.46,0,0,0,1.14.77c2.59,1.49,13.31,8.51,5.72,18.56a10,10,0,0,0-1.29,2.27l-16.88,42a7.23,7.23,0,0,0-.29,4.85c1.3,4.25,5.47,11.49,18.47,6,.63-.26,1.28-.51,1.94-.72l55.12-17.41c7.08-2.24,11.53-7.87,10.07-12.76L325,468.29c-1.48-5-8.53-7.33-15.82-5.31l-50.69,14.11a18,18,0,0,1-2.27.49c-2.58.39-9.9,1.93-13.25,7.18A7,7,0,0,0,244.54,494.46Z" transform="translate(-137.14 -192.94)"/><path class="cls-9" d="M568.55,442.24l-46.81-22.68a19.8,19.8,0,0,0-17.58.21l-46.25,23.8c-13.78,7.09-30.12-3.9-27.64-18.59l8.29-49.32a17.38,17.38,0,0,0-5.63-15.82l-38.06-34.4C383.53,315.19,389.5,297,405,294.69l51.93-7.8a18.89,18.89,0,0,0,14.11-10l22.72-45.06c6.77-13.42,26.8-13.66,33.89-.4l23.8,44.49a18.9,18.9,0,0,0,14.35,9.65l52.1,6.55c15.53,1.95,21.94,20,10.84,30.49l-37.21,35.31a17.38,17.38,0,0,0-5.25,15.95l9.48,49.1C598.56,437.62,582.5,449,568.55,442.24Z" transform="translate(-137.14 -192.94)"/><path class="cls-9" d="M722.77,489.05l-28.86-23.51a14.15,14.15,0,0,0-12.28-2.75l-36.13,8.95c-10.76,2.66-20.33-7.68-16.18-17.51l13.9-33a12.43,12.43,0,0,0-1.31-11.95l-20.83-30.23c-6.21-9,.95-20.67,12.11-19.74l37.44,3.12a13.49,13.49,0,0,0,11.48-4.63l23.25-27.62c6.93-8.24,20.91-5.1,23.67,5.3l9.23,34.91a13.52,13.52,0,0,0,8.4,9.08l35.21,13.15c10.49,3.92,12,17.53,2.52,23l-31.74,18.45a12.48,12.48,0,0,0-6.28,10.25l-1.49,35.75C744.43,490.78,731.36,496.05,722.77,489.05Z" transform="translate(-137.14 -192.94)"/><path class="cls-9" d="M374,468.51l-36.77-5.75a14.15,14.15,0,0,0-12,3.81l-26.69,25.94c-8,7.73-21.43,3.62-22.81-7l-4.61-35.49A12.47,12.47,0,0,0,264,440.4l-33.23-15.6c-9.9-4.65-9.61-18.33.5-23.15l33.92-16.18a13.51,13.51,0,0,0,7.57-9.78l6.16-35.58c1.83-10.61,15.49-14.95,23.11-7.35l25.58,25.49a13.52,13.52,0,0,0,11.83,3.61l37-6.39c11-1.9,19.18,9.1,13.79,18.61L372.16,406a12.47,12.47,0,0,0-.26,12l16.74,31.63C393.62,459.09,385,470.23,374,468.51Z" transform="translate(-137.14 -192.94)"/><circle class="cls-10" cx="410.96" cy="131.51" r="10.63"/><circle class="cls-10" cx="344.96" cy="131.51" r="10.63"/><circle class="cls-10" cx="544.45" cy="196.54" r="8.02"/><circle class="cls-10" cx="586.84" cy="210.88" r="7.59"/><circle class="cls-10" cx="193.01" cy="196.54" r="6.94"/><circle class="cls-10" cx="153.76" cy="213.48" r="7.27"/><rect class="cls-11" x="175.39" y="252.84" width="398.22" height="115.2" rx="35.78"/><rect class="cls-12" x="174.13" y="452.06" width="398.22" height="115.2" rx="35.78"/><text class="cls-13" transform="translate(319.09 442.27)">s<tspan class="cls-14" x="21.87" y="0">c</tspan><tspan x="47.44" y="0">o</tspan><tspan class="cls-15" x="73.83" y="0">r</tspan><tspan x="99.58" y="0">e</tspan></text><text class="cls-16" transform="translate(223.64 337.81)">Ver<tspan class="cls-17" x="110.13" y="0">l</tspan><tspan class="cls-18" x="139.62" y="0">o</tspan><tspan class="cls-19" x="176.43" y="0">r</tspan><tspan x="212.39" y="0">en</tspan></text><path class="cls-10" d="M536.06,357.46c0,.34-.21.65-.92,1a.36.36,0,0,1-.17,0c-1.71-.24-29-3.92-42.54.16a.24.24,0,0,1-.22,0c-.39-.22-1.72-1.13-.33-2.8a.36.36,0,0,1,.16-.11c1.36-.31,16.63-3.59,42.57-.1A1.71,1.71,0,0,1,536.06,357.46Z" transform="translate(-137.14 -192.94)"/><path class="cls-10" d="M713.45,423.84a1.17,1.17,0,0,1-.9.72.17.17,0,0,1-.12,0c-1-.6-16.92-10.13-26.79-9.28a.14.14,0,0,1-.13-.07c-.18-.3-.71-1.45.72-2.72a.24.24,0,0,1,.14-.06c1,0,11.65.3,26.8,9.35A1.72,1.72,0,0,1,713.45,423.84Z" transform="translate(-137.14 -192.94)"/><path class="cls-10" d="M332.37,413.3a1.27,1.27,0,0,1-.15,1.18.13.13,0,0,1-.08.07c-1.1.19-18.65,3.25-25,10.56a.11.11,0,0,1-.13,0c-.33-.12-1.48-.68-1.34-2.66a.17.17,0,0,1,.06-.14c.67-.63,8.31-7.58,25-10.51C331.32,411.74,332.05,412.37,332.37,413.3Z" transform="translate(-137.14 -192.94)"/><path class="cls-20" d="M323.89,498.6S313.28,463,354.34,452.37,343.94,499.1,323.89,498.6Z" transform="translate(-137.14 -192.94)"/><path class="cls-21" d="M192.11,596.37s-22.59-38.91,41.34-73.85S224.22,586.4,192.11,596.37Z" transform="translate(-137.14 -192.94)"/><polygon class="cls-22" points="575.91 719.61 609.4 684.91 644.1 719.61 575.91 719.61"/><rect class="cls-23" x="586.84" y="719.44" width="48.14" height="33.8"/><image width="512" height="512" transform="translate(339.53 680.61) scale(0.16)" xlink:href="../../../Downloads/reload.png"/><image width="128" height="128" transform="translate(111.74 680.55) scale(0.63)" xlink:href="../../../Downloads/setting.png"/></g></svg>