<?xml version="1.0" encoding="utf-8"?>
<!-- Generator: Adobe Illustrator 28.3.0, SVG Export Plug-In . SVG Version: 6.00 Build 0)  -->
<svg version="1.1" id="Ebene_1" xmlns="http://www.w3.org/2000/svg" xmlns:xlink="http://www.w3.org/1999/xlink" x="0px" y="0px"
	 viewBox="0 0 2000 2000" style="enable-background:new 0 0 2000 2000;" xml:space="preserve">
<style type="text/css">
	.st0{fill:#B8E2FF;}
	.st1{fill:none;}
	.st2{fill:#FF737D;}
	.st3{font-family:'BubbleGum';}
	.st4{font-size:58px;}
	.st5{fill:#58B4F9;stroke:#000000;stroke-miterlimit:10;}
	.st6{font-size:30px;}
	.st7{fill:#D4E7DB;stroke:#D4E7DB;stroke-width:11;stroke-linecap:round;stroke-linejoin:round;stroke-miterlimit:10;}
	.st8{fill:#FFC76C;}
	.st9{fill:#FCFCFC;}
	.st10{font-size:61px;}
	.st11{fill:#FFFFFF;stroke:#FFFFFF;stroke-width:5;stroke-linecap:round;stroke-linejoin:round;stroke-miterlimit:10;}
	.st12{fill:none;stroke:#FFFFFF;stroke-width:5;stroke-linecap:round;stroke-linejoin:round;stroke-miterlimit:10;}
</style>
<path class="st0" d="M1260.37,1446.98H710.61c-32.23,0-58.61-26.37-58.61-58.61V627.61c0-32.23,26.37-58.61,58.61-58.61h549.77
	c32.23,0,58.61,26.37,58.61,58.61v760.77C1318.98,1420.61,1292.61,1446.98,1260.37,1446.98z"/>
<g>
	<rect x="899.4" y="601.22" class="st1" width="201.19" height="196.09"/>
	<text transform="matrix(1 0 0 1 901.7145 646.114)"><tspan x="0" y="0" class="st2 st3 st4">Zweite </tspan><tspan x="10.6" y="57" class="st2 st3 st4">Kassa </tspan><tspan x="7.08" y="114" class="st2 st3 st4">Jetzt!</tspan></text>
</g>
<rect x="679.23" y="779.7" class="st1" width="612.51" height="175.02"/>
<text transform="matrix(1 0 0 1 845.4178 802.9203)"><tspan x="0" y="0" class="st5 st3 st6">Die Kassa ist voll!</tspan><tspan x="-156.82" y="36" class="st5 st3 st6">Schrei &quot;zweite kassa bitte&quot; um die auf</tspan><tspan x="424.52" y="36" class="st5 st3 st6">-</tspan><tspan x="-162.62" y="72" class="st5 st3 st6">merksamkeit der kassiererin zu bekom</tspan><tspan x="430.32" y="72" class="st5 st3 st6">-</tspan><tspan x="-148.23" y="108" class="st5 st3 st6">men. schrei jedoch nicht zu laut oder </tspan><tspan x="81.31" y="144" class="st5 st3 st6">zu leise </tspan></text>
<line class="st7" x1="690.21" y1="966.21" x2="1295.83" y2="966.21"/>
<line class="st7" x1="682.68" y1="1266.21" x2="1288.3" y2="1266.21"/>
<g>
	<path class="st8" d="M829.11,1403.65c-25.29,0-45.86-20.57-45.86-45.86s20.57-45.86,45.86-45.86h325.45
		c25.29,0,45.86,20.57,45.86,45.86s-20.57,45.86-45.86,45.86H829.11z"/>
	<path class="st9" d="M1154.56,1315.43c23.36,0,42.36,19,42.36,42.36c0,23.36-19,42.36-42.36,42.36H829.11
		c-23.36,0-42.36-19-42.36-42.36c0-23.36,19-42.36,42.36-42.36H1154.56 M1154.56,1308.43H829.11c-27.15,0-49.36,22.21-49.36,49.36v0
		c0,27.15,22.21,49.36,49.36,49.36h325.45c27.15,0,49.36-22.21,49.36-49.36v0C1203.92,1330.64,1181.71,1308.43,1154.56,1308.43
		L1154.56,1308.43z"/>
</g>
<g>
	<rect x="912.85" y="1333.62" class="st1" width="139.91" height="60.77"/>
	<text transform="matrix(1 0 0 1 914.0649 1380.8301)" class="st9 st3 st10">Play</text>
</g>
<circle class="st2" cx="1306.59" cy="591.77" r="42.41"/>
<path class="st11" d="M1288.68,613.11c0,0,17.87-25.02,35.74-41.87"/>
<path class="st12" d="M1288.68,574.81c35.74,17.87,35.74,35.74,35.74,35.74"/>
</svg>
